<svg xmlns="http://www.w3.org/2000/svg"  viewBox="0 0 100 100" width="200px" height="200px"><path d="M26.5,93C17.953,93,11,86.047,11,77.5v-51C11,17.953,17.953,11,26.5,11h51C86.047,11,93,17.953,93,26.5v51 C93,86.047,86.047,93,77.5,93H26.5z" opacity=".35"/><path fill="#f2f2f2" d="M24.5,91C15.953,91,9,84.047,9,75.5v-51C9,15.953,15.953,9,24.5,9h51C84.047,9,91,15.953,91,24.5v51 C91,84.047,84.047,91,75.5,91H24.5z"/><path fill="#2b59a1" d="M75.5,15.5h-51c-4.971,0-9,4.029-9,9v51c0,4.971,4.029,9,9,9h51c4.971,0,9-4.029,9-9v-51 C84.5,19.529,80.471,15.5,75.5,15.5z"/><path fill="#40396e" d="M75.5,86h-51C18.71,86,14,81.29,14,75.5v-51C14,18.71,18.71,14,24.5,14h51 C81.29,14,86,18.71,86,24.5v51C86,81.29,81.29,86,75.5,86z M24.5,17c-4.136,0-7.5,3.364-7.5,7.5v51c0,4.136,3.364,7.5,7.5,7.5h51 c4.136,0,7.5-3.364,7.5-7.5v-51c0-4.136-3.364-7.5-7.5-7.5H24.5z"/><g><path fill="#70bfff" d="M32.248,34.029c0-0.206,0.149-0.378,0.353-0.401c0.776-0.085,2.94-0.262,7.557-0.262 c6.958,0,11.831,2.76,11.831,10.311c0,6.811-4.637,10.807-12.118,10.807c-0.436,0-0.873,0-2.358,0v11.407 c0,0.19-0.155,0.345-0.345,0.345h-4.573c-0.19,0-0.345-0.155-0.345-0.345V34.029H32.248z M37.514,49.689 c0,0,2.302,0.016,2.822,0.016c4.272,0,6.215-2.533,6.215-5.926c0-3.178-1.889-5.657-5.837-5.657c-1.627,0-3.198,0.093-3.198,0.093 v11.475H37.514z"/><path fill="#70bfff" d="M54.839,60.399c0-0.184,0.2-0.299,0.353-0.198c0.977,0.654,2.961,1.772,6.033,1.772 c2.005,0,3.273-0.863,3.273-2.271c0-1.559-2.143-2.69-3.911-3.65c-1.759-0.954-5.709-2.486-5.709-7.42 c0-4.373,3.495-7.01,8.253-7.01c1.823,0,3.834,0.283,5.191,0.778c0.223,0.081,0.359,0.299,0.359,0.537v4.443 c0,0.182-0.192,0.301-0.345,0.2c-0.851-0.557-2.729-1.408-5.312-1.408c-2.151,0-3.097,1.047-3.097,2.114 c0,1.869,2.49,2.651,4.724,3.962c3.485,1.939,5.1,3.834,5.1,6.803c0,4.856-3.621,7.582-8.525,7.582 c-2.533,0-4.914-0.553-6.132-1.293c-0.169-0.103-0.254-0.289-0.254-0.487L54.839,60.399z"/></g></svg>